<?xml version="1.0" encoding="UTF-8"?>
<svg version="1.1" xmlns="http://www.w3.org/2000/svg" width="1200" height="1200">
<path d="M0 0 C6.4903015 4.90730114 9.57453502 10.37188356 11.875 18.0625 C12.2927771 19.3923291 12.2927771 19.3923291 12.71899414 20.74902344 C13.33485542 22.71562802 13.9434586 24.68451598 14.54589844 26.65527344 C15.46288926 29.61589415 16.41120993 32.56454914 17.37538147 35.51010132 C18.21983132 38.09408076 19.05211705 40.68188997 19.88241577 43.27044678 C20.48753108 45.14879502 21.10267201 47.02390405 21.71801758 48.89892578 C26.50357474 64.060654 26.50357474 64.060654 23.1328125 70.79296875 C19.53545975 73.79440744 15.88392207 74.91218607 11.4375 76.25 C10.53257812 76.53705811 9.62765625 76.82411621 8.6953125 77.11987305 C5.65657875 78.07794679 2.61042506 79.0091037 -0.4375 79.9375 C-2.76839443 80.65571386 -5.09911923 81.37447845 -7.4296875 82.09375 C-10.88997434 83.16064386 -14.35109423 84.22385105 -17.81689453 85.27270508 C-18.86731934 85.59134521 -19.91774414 85.90998535 -21 86.23828125 C-21.92941406 86.51841064 -22.85882812 86.79854004 -23.81640625 87.0871582 C-26.44421313 87.90435759 -26.44421313 87.90435759 -28.96118164 88.96582031 C-31.46450196 89.94809527 -33.87643523 90.58302913 -36.49609375 91.18359375 C-44.70992017 93.185769 -52.76475183 95.68975727 -60.84057617 98.1809082 C-63.5240924 99.00742036 -66.21017484 99.82519655 -68.89648438 100.64257812 C-70.60953589 101.1687473 -72.32243243 101.69542138 -74.03515625 102.22265625 C-74.83510513 102.46540787 -75.63505402 102.70815948 -76.45924377 102.95826721 C-79.81106967 103.9993269 -82.49791575 104.97777717 -85.4375 106.9375 C-87.73327863 107.57359442 -90.04739285 108.14423582 -92.36865234 108.67993164 C-102.227993 111.04068602 -111.86506695 114.03932785 -121.5390625 117.05859375 C-123.43312457 117.64654433 -125.32728142 118.23418968 -127.2215271 118.82154846 C-131.16385306 120.04500611 -135.10523094 121.27145549 -139.04589844 122.50024414 C-144.05785422 124.06292265 -149.07182146 125.61902625 -154.08648109 127.1730032 C-157.98917258 128.38301337 -161.8909265 129.59602382 -165.79240036 130.80995369 C-167.63944373 131.38437802 -169.48672963 131.95802318 -171.33427811 132.53082085 C-180.8240116 135.47515654 -190.22684468 138.53380872 -199.56518555 141.93061829 C-202.95014081 143.11720479 -206.26157548 143.9947153 -209.76171875 144.7734375 C-219.91728725 147.1692107 -229.82909936 150.36161244 -239.78207397 153.47714233 C-245.82315663 155.36782147 -251.86895883 157.24331932 -257.9140625 159.12109375 C-259.80245094 159.70830956 -259.80245094 159.70830956 -261.72898865 160.30738831 C-275.54494095 164.60158826 -289.38172516 168.82722699 -303.22124863 173.04473114 C-306.31083948 173.98644726 -309.40012908 174.9291511 -312.48950195 175.87158203 C-314.83020884 176.58506608 -317.17094631 177.29844978 -319.51171875 178.01171875 C-321.03090408 178.47494286 -321.03090408 178.47494286 -322.58078003 178.94752502 C-329.33665039 181.00393491 -336.09893734 183.03839548 -342.86335754 185.06648254 C-344.24810453 185.48177397 -344.24810453 185.48177397 -345.66082621 185.90545511 C-347.91969276 186.58288585 -350.17858461 187.26023212 -352.4375 187.9375 C-351.6099385 187.93771737 -350.78237699 187.93793474 -349.92973787 187.93815869 C-300.91224063 187.95166631 -251.89482297 187.99110699 -202.87737669 188.06435562 C-196.99548122 188.07312267 -191.11358544 188.08167242 -185.23168945 188.09008789 C-184.06068001 188.09176695 -182.88967058 188.09344602 -181.683176 188.09517596 C-162.70729423 188.12186618 -143.73144266 188.13094249 -124.75554404 188.13354143 C-105.29327398 188.13659785 -85.83109144 188.15850845 -66.3688609 188.19802457 C-54.3537457 188.22182271 -42.33880506 188.23080793 -30.32366952 188.22101311 C-22.09119542 188.21570887 -13.85887816 188.22867188 -5.62644873 188.2561629 C-0.87241533 188.27149377 3.88126723 188.27861409 8.63531113 188.26409721 C12.98493626 188.25099256 17.33387994 188.26074666 21.68342791 188.28893773 C23.25953972 188.29507244 24.83571149 188.29270747 26.41179272 188.28112926 C28.55043846 188.26664368 30.68674041 188.28275512 32.82525158 188.30664349 C34.01415593 188.30778265 35.20306029 188.30892181 36.42799205 188.31009549 C40.55472376 189.13610395 42.0368147 190.62010475 44.5625 193.9375 C45.19039649 196.42044902 45.19039649 196.42044902 45.19449902 199.08787155 C45.20815445 200.10942801 45.22180989 201.13098447 45.23587912 202.18349719 C45.22540763 203.29895081 45.21493615 204.41440443 45.20414734 205.56365967 C45.21265286 206.75397899 45.22115838 207.94429831 45.22992164 209.17068791 C45.24835549 212.47176765 45.24435192 215.77143763 45.23078239 219.07244968 C45.22153218 222.63363585 45.24101526 226.19468156 45.25675964 229.75582886 C45.2828621 236.73196612 45.28175399 243.7078458 45.27072146 250.68401334 C45.26216432 256.35556194 45.2629928 262.027036 45.27051735 267.69858551 C45.27157224 268.50571504 45.27262713 269.31284456 45.27371398 270.14443256 C45.27588492 271.78413733 45.27807169 273.42384208 45.28027413 275.06354681 C45.29971059 290.44464685 45.28770114 305.82560246 45.26548818 321.2066907 C45.24724922 334.39701143 45.25812306 347.58705209 45.28979492 360.77734375 C45.32657788 376.0970835 45.34357111 391.41664832 45.33038265 406.73643231 C45.32904157 408.37133866 45.32773258 410.00624503 45.32645607 411.64115143 C45.32551007 412.8477197 45.32551007 412.8477197 45.32454496 414.0786631 C45.32152026 419.73967752 45.33276714 425.40055982 45.34970665 431.06154633 C45.37005626 437.96621354 45.36912532 444.8704859 45.34107425 451.77513263 C45.32732273 455.29643389 45.32307009 458.81704645 45.34502411 462.33832169 C45.36853787 466.16037951 45.34531653 469.98135779 45.31767273 473.80340576 C45.3387724 475.46320186 45.3387724 475.46320186 45.36029834 477.15652919 C45.2551414 484.37690115 43.83497143 489.7634323 38.5625 494.9375 C33.52732174 498.40909532 29.78189236 499.52284309 23.63601875 499.44645119 C22.86411656 499.45286414 22.09221436 499.4592771 21.29692119 499.46588439 C18.71287128 499.48247467 16.12974973 499.47064084 13.54568481 499.45889282 C11.67339209 499.46493471 9.80110431 499.4727131 7.92882526 499.48207796 C2.78561665 499.50267056 -2.35731365 499.49826618 -7.50054526 499.48971677 C-13.04805251 499.48478819 -18.59549224 499.50280321 -24.14297485 499.51779175 C-35.01038434 499.54330637 -45.87769505 499.54687058 -56.74512945 499.54219122 C-65.57737254 499.53862691 -74.40958561 499.54211978 -83.2418251 499.55064011 C-84.49829217 499.55183048 -85.75475924 499.55302086 -87.04930107 499.55424731 C-89.60171675 499.55667078 -92.15413243 499.55909905 -94.70654811 499.56153207 C-111.8473204 499.57710918 -128.98808137 499.58494287 -146.12885857 499.57689857 C-146.79908805 499.57658582 -147.46931753 499.57627307 -148.15985699 499.57595084 C-151.55680295 499.57433929 -154.95374886 499.57264775 -158.35069476 499.57092424 C-159.02533221 499.57058206 -159.69996967 499.57023989 -160.39505068 499.56988734 C-161.75933124 499.56919403 -163.1236118 499.56849697 -164.48789235 499.56779617 C-185.71644056 499.55708159 -206.94482263 499.57294332 -228.17333984 499.60986328 C-252.02705615 499.65130037 -275.88067027 499.67268712 -299.73443425 499.66471231 C-312.36332813 499.66088488 -324.99207064 499.66589629 -337.62093735 499.69414139 C-348.37192705 499.71794297 -359.12267221 499.72080826 -369.8736652 499.69656105 C-375.35940965 499.68476513 -380.84470653 499.68263449 -386.33042145 499.70656586 C-391.35294816 499.72822203 -396.37465197 499.72215207 -401.39713968 499.69404249 C-403.21336345 499.68873143 -405.02965106 499.69353567 -406.84581231 499.70951422 C-423.60818882 499.84674514 -423.60818882 499.84674514 -429.81232822 494.67541355 C-435.02223779 489.104081 -436.02432291 484.03360282 -435.95648193 476.57936096 C-435.96398319 475.65674105 -435.97148444 474.73412114 -435.979213 473.78354305 C-435.999461 470.70124939 -435.9913921 467.61969352 -435.98339844 464.53735352 C-435.99213691 462.32225316 -436.00262364 460.10715912 -436.01472473 457.89207458 C-436.04262509 451.87395344 -436.04598785 445.85603774 -436.04500484 439.8378613 C-436.04814231 433.51067134 -436.07379398 427.18357256 -436.09698486 420.85643005 C-436.13298695 410.20449338 -436.1550508 399.55261866 -436.16650391 388.90063477 C-436.17824924 378.01160109 -436.19833006 367.12263738 -436.22998047 356.23364258 C-436.23191657 355.56656556 -436.23385267 354.89948854 -436.23584744 354.21219707 C-436.24562363 350.86087082 -436.25555682 347.50954506 -436.26555204 344.15821946 C-436.32143217 325.23942723 -436.3720892 306.32062415 -436.39691544 287.40176296 C-436.40329266 282.92654402 -436.41734383 278.45145575 -436.43807602 273.97628117 C-436.47556424 264.56653565 -436.45325463 255.17857917 -436.12561035 245.77389526 C-436.06395669 243.54850604 -436.00547452 241.32305908 -435.94820642 239.09755313 C-435.88275532 237.13659925 -435.76774729 235.17748845 -435.65049362 233.21894932 C-435.38781151 226.92974611 -435.38781151 226.92974611 -438.39958954 221.67170906 C-440.6686734 219.90209885 -442.98110017 218.42851035 -445.4375 216.9375 C-454.26182921 207.15595542 -456.25749338 197.20090933 -455.8671875 184.4140625 C-455.37932665 177.09614971 -452.45764297 170.96771446 -448.4375 164.9375 C-448.59796988 162.96512536 -448.59796988 162.96512536 -449.25 160.875 C-451.34136911 152.38569248 -452.60569632 145.00240093 -448.4375 136.9375 C-446 134.0625 -446 134.0625 -443.4375 131.9375 C-442.87699951 131.44854248 -442.31649902 130.95958496 -441.73901367 130.45581055 C-438.70419756 128.45373975 -435.50754928 127.5240014 -432.05078125 126.51953125 C-430.94962227 126.18812386 -430.94962227 126.18812386 -429.82621765 125.85002136 C-427.46971333 125.14226755 -425.1101158 124.44560543 -422.75 123.75 C-419.70334207 122.84345592 -416.65811261 121.93218967 -413.61328125 121.01953125 C-412.81209869 120.77999725 -412.01091614 120.54046326 -411.18545532 120.29367065 C-404.70588177 118.34576528 -398.26335686 116.29202969 -391.82421875 114.21484375 C-377.76244961 109.68524552 -363.63501085 105.37759951 -349.5020752 101.07687378 C-342.36248959 98.90421212 -335.22474249 96.72552099 -328.08686066 94.54726982 C-326.45440579 94.04911303 -324.82193404 93.55101159 -323.1894455 93.05296516 C-307.34416132 88.21875312 -291.50645775 83.36015516 -275.67333984 78.48625565 C-273.68103315 77.87300946 -271.68866804 77.25995343 -269.69628906 76.64694214 C-255.27180586 72.20855017 -240.85094327 67.75866148 -226.43583488 63.28991127 C-219.93678571 61.27532969 -213.43722853 59.26238853 -206.9375 57.25 C-206.23268871 57.03174183 -205.52787743 56.81348366 -204.80170822 56.5886116 C-181.25763155 49.29891899 -157.66934947 42.16905521 -134.03515625 35.17700195 C-132.90990036 34.84373398 -131.78464447 34.510466 -130.62528992 34.167099 C-128.55463075 33.55427558 -126.48355157 32.94286852 -124.41194153 32.33326721 C-119.4777882 30.87403415 -114.58365771 29.33859782 -109.70915222 27.69161987 C-105.44985225 26.27766103 -101.15255699 24.98632321 -96.859375 23.6796875 C-95.86216431 23.37510117 -94.86495361 23.07051483 -93.83752441 22.75669861 C-91.71527099 22.10854231 -89.59287168 21.46086354 -87.47033691 20.81362915 C-81.94819529 19.12960491 -76.42720163 17.44182703 -70.90625 15.75390625 C-69.28036957 15.25690468 -69.28036957 15.25690468 -67.62164307 14.74986267 C-56.84728435 11.45452724 -46.08536409 8.12028662 -35.328125 4.76953125 C-33.88481812 4.32323364 -33.88481812 4.32323364 -32.41235352 3.86791992 C-30.28350737 3.20209861 -28.15947877 2.52079586 -26.03881836 1.8293457 C-17.19224719 -1.01215056 -9.117282 -2.81806898 0 0 Z M-17.5625 21.4375 C-18.47257812 21.7159375 -19.38265625 21.994375 -20.3203125 22.28125 C-21.01898437 22.4978125 -21.71765625 22.714375 -22.4375 22.9375 C-22.4375 23.5975 -22.4375 24.2575 -22.4375 24.9375 C-14.5175 28.8975 -14.5175 28.8975 -6.4375 32.9375 C-6.72625 31.535 -7.015 30.1325 -7.3125 28.6875 C-7.55613281 27.50414062 -7.55613281 27.50414062 -7.8046875 26.296875 C-8.42900075 23.96918856 -9.28588542 22.04718048 -10.4375 19.9375 C-13.01965061 19.9375 -15.09556584 20.67844334 -17.5625 21.4375 Z M-60.41796875 34.6875 C-61.58134766 35.0484375 -62.74472656 35.409375 -63.94335938 35.78125 C-65.15830078 36.1628125 -66.37324219 36.544375 -67.625 36.9375 C-68.85154297 37.3190625 -70.07808594 37.700625 -71.34179688 38.09375 C-74.37489332 39.03790453 -77.406711 39.98596954 -80.4375 40.9375 C-78.03363726 43.63991741 -75.52204922 45.09235621 -72.30859375 46.72265625 C-70.76824463 47.5122876 -70.76824463 47.5122876 -69.19677734 48.31787109 C-68.10059082 48.87297363 -67.0044043 49.42807617 -65.875 50 C-52.90167139 56.61271867 -52.90167139 56.61271867 -47.02734375 60.05078125 C-46.22304932 60.5192749 -45.41875488 60.98776855 -44.59008789 61.47045898 C-43.11252556 62.34109465 -41.64355757 63.22654873 -40.18530273 64.12915039 C-36.93058056 66.03681774 -35.02728454 66.94104864 -31.19140625 66.91796875 C-25.91492053 65.53982316 -20.70351155 64.00614422 -15.5 62.375 C-13.90188477 61.8809668 -13.90188477 61.8809668 -12.27148438 61.37695312 C-9.65865762 60.5685 -7.04743378 59.75523465 -4.4375 58.9375 C-6.83428957 56.2480446 -9.33464418 54.78542926 -12.53125 53.15234375 C-13.55331543 52.62600342 -14.57538086 52.09966309 -15.62841797 51.55737305 C-16.72041504 51.00218994 -17.81241211 50.44700684 -18.9375 49.875 C-21.2008511 48.7141854 -23.46386834 47.55271961 -25.7265625 46.390625 C-26.85481445 45.81248047 -27.98306641 45.23433594 -29.14550781 44.63867188 C-32.18114513 43.0699741 -35.19966793 41.47425143 -38.2109375 39.859375 C-39.07783203 39.39539307 -39.94472656 38.93141113 -40.83789062 38.45336914 C-42.45620058 37.58466112 -44.0721953 36.71162259 -45.68554688 35.83374023 C-51.56669592 32.69111639 -54.17228199 32.73762706 -60.41796875 34.6875 Z M-124.25 53.375 C-125.41853516 53.77138672 -126.58707031 54.16777344 -127.79101562 54.57617188 C-133.52585871 56.09969376 -133.52585871 56.09969376 -137.4375 59.9375 C-136.25329468 60.54839478 -136.25329468 60.54839478 -135.04516602 61.17163086 C-132.69219592 62.3858847 -130.33959665 63.60084067 -127.98730469 64.81640625 C-125.32176727 66.19359234 -122.65422862 67.56679823 -119.98535156 68.9375 C-114.28968698 71.86823843 -108.6074406 74.79715413 -103.04296875 77.97265625 C-102.28878662 78.39748291 -101.53460449 78.82230957 -100.75756836 79.26000977 C-99.42831051 80.01611433 -98.10892922 80.79000918 -96.80297852 81.58569336 C-90.862366 84.93616311 -86.14214979 83.87990478 -79.84814453 82.27880859 C-77.17356545 81.52451554 -74.52452888 80.71281874 -71.875 79.875 C-70.96169922 79.59333984 -70.04839844 79.31167969 -69.10742188 79.02148438 C-66.88177788 78.33398178 -64.65868518 77.63924718 -62.4375 76.9375 C-62.4375 76.2775 -62.4375 75.6175 -62.4375 74.9375 C-67.02211883 72.50001485 -71.6079508 70.06483161 -76.19482422 67.6315918 C-77.74852868 66.80699736 -79.30192467 65.98182136 -80.85498047 65.15600586 C-81.60279785 64.75841064 -82.35061523 64.36081543 -83.12109375 63.95117188 C-83.86640854 63.5547197 -84.61172333 63.15826752 -85.37962341 62.74980164 C-86.88486138 61.95401785 -88.39324904 61.16416412 -89.90467834 60.38020325 C-93.40006871 58.56687279 -96.83536133 56.72334079 -100.19311523 54.66479492 C-109.10393804 49.36950783 -114.6664523 49.67967238 -124.25 53.375 Z M-175.515625 69.6875 C-176.67578125 70.0484375 -177.8359375 70.409375 -179.03125 70.78125 C-180.2378125 71.1628125 -181.444375 71.544375 -182.6875 71.9375 C-184.52054688 72.50984375 -184.52054688 72.50984375 -186.390625 73.09375 C-189.4078655 74.03663766 -192.42336685 74.98473492 -195.4375 75.9375 C-192.78043437 79.06388105 -189.42176415 80.67422923 -185.8203125 82.484375 C-184.84081131 82.98581024 -184.84081131 82.98581024 -183.84152222 83.49737549 C-181.75124798 84.56621098 -179.65709694 85.62716462 -177.5625 86.6875 C-175.51213763 87.73110923 -173.4626449 88.77638476 -171.41400146 89.82336426 C-170.06067529 90.51363015 -168.70572996 91.20073076 -167.34918213 91.88464355 C-164.11506307 93.5234313 -160.93392743 95.20496797 -157.81152344 97.04882812 C-150.60228773 101.57035098 -150.60228773 101.57035098 -142.484375 101.62939453 C-141.47117187 101.28690674 -141.47117187 101.28690674 -140.4375 100.9375 C-139.55578125 100.68468262 -138.6740625 100.43186523 -137.765625 100.17138672 C-134.80160582 99.2961491 -131.87107984 98.34708518 -128.9375 97.375 C-127.92429687 97.04564453 -126.91109375 96.71628906 -125.8671875 96.37695312 C-123.38845453 95.5701957 -120.91206681 94.75692892 -118.4375 93.9375 C-121.58864435 91.42898277 -124.87218484 89.53391194 -128.42578125 87.64453125 C-129.00168503 87.33702942 -129.57758881 87.02952759 -130.17094421 86.71270752 C-132.02883008 85.72171429 -133.88923587 84.73557675 -135.75 83.75 C-137.02420024 83.07304548 -138.29828859 82.39588034 -139.57226562 81.71850586 C-141.46053814 80.71451239 -143.34892398 79.71074277 -145.23806763 78.70838928 C-148.66625971 76.88772 -152.08148969 75.04648507 -155.48046875 73.171875 C-156.16906982 72.79442139 -156.8576709 72.41696777 -157.56713867 72.02807617 C-159.29744952 71.07698115 -161.02390102 70.11887396 -162.75 69.16015625 C-167.38697609 67.05060172 -170.87738509 68.23236591 -175.515625 69.6875 Z M-232.88671875 87.3984375 C-234.40555664 87.85863281 -234.40555664 87.85863281 -235.95507812 88.328125 C-237.00115234 88.65296875 -238.04722656 88.9778125 -239.125 89.3125 C-240.18267578 89.62960937 -241.24035156 89.94671875 -242.33007812 90.2734375 C-247.87079058 91.74701641 -247.87079058 91.74701641 -252.4375 94.9375 C-251.72432617 95.30399658 -251.01115234 95.67049316 -250.27636719 96.0480957 C-247.52955011 97.46140584 -244.7841839 98.87749416 -242.03948975 100.29492188 C-240.80659124 100.93073231 -239.57307132 101.56533923 -238.33892822 102.19873047 C-231.97953384 105.46272238 -225.66390769 108.7484474 -219.5078125 112.38671875 C-218.62254883 112.90387451 -217.73728516 113.42103027 -216.82519531 113.95385742 C-215.1938138 114.91712068 -213.57489326 115.90192761 -211.97167969 116.91137695 C-208.0974774 119.18320714 -205.52890231 120.34811719 -201.04296875 119.4140625 C-199.49921917 118.94952995 -197.96409142 118.45564272 -196.4375 117.9375 C-194.68688651 117.43250261 -192.93555917 116.92997452 -191.18359375 116.4296875 C-189.41305247 115.89395176 -187.6435221 115.35486408 -185.875 114.8125 C-184.50504883 114.39677734 -184.50504883 114.39677734 -183.10742188 113.97265625 C-180.88319283 113.29723591 -178.65993047 112.61881033 -176.4375 111.9375 C-178.84136274 109.23508259 -181.35295078 107.78264379 -184.56640625 106.15234375 C-185.5934668 105.62600342 -186.62052734 105.09966309 -187.67871094 104.55737305 C-188.77473633 104.00218994 -189.87076172 103.44700684 -191 102.875 C-199.74933864 98.40385844 -208.41175671 93.84570466 -216.86547852 88.83374023 C-222.84380433 85.39232905 -226.41230401 85.43416878 -232.88671875 87.3984375 Z M-288.5390625 104.6875 C-289.75078125 105.0484375 -290.9625 105.409375 -292.2109375 105.78125 C-293.49480924 106.16660813 -294.77866318 106.55202557 -296.0625 106.9375 C-297.35409229 107.32316583 -298.64575809 107.70858558 -299.9375 108.09375 C-303.10489984 109.03924249 -306.27152064 109.98726393 -309.4375 110.9375 C-309.4375 111.5975 -309.4375 112.2575 -309.4375 112.9375 C-308.79538574 113.2684668 -308.15327148 113.59943359 -307.49169922 113.94042969 C-305.54911568 114.94294217 -303.60765333 115.94762862 -301.66699219 116.95385742 C-299.40876973 118.1209344 -297.1462923 119.27981075 -294.87988281 120.4309082 C-289.28734572 123.29628308 -283.86616444 126.22342009 -278.6171875 129.68359375 C-268.47062014 136.52047545 -268.47062014 136.52047545 -256.6796875 137.453125 C-251.35967912 136.14860362 -246.43610617 134.14276743 -241.4375 131.9375 C-238.78117878 130.90739763 -236.11053725 129.92375857 -233.4375 128.9375 C-236.22062546 126.74734285 -239.00520588 125.01789075 -242.15625 123.40625 C-243.07962158 122.93026367 -244.00299316 122.45427734 -244.9543457 121.96386719 C-245.93878662 121.46016602 -246.92322754 120.95646484 -247.9375 120.4375 C-256.81988603 115.85879014 -265.61181387 111.14898853 -274.31640625 106.24023438 C-275.48429687 105.58764648 -275.48429687 105.58764648 -276.67578125 104.921875 C-277.35680908 104.53741211 -278.03783691 104.15294922 -278.73950195 103.75683594 C-282.14481049 102.11367052 -285.07645248 103.65195308 -288.5390625 104.6875 Z M-346.63671875 122.6875 C-348.44946289 123.22890625 -348.44946289 123.22890625 -350.29882812 123.78125 C-351.56146484 124.1628125 -352.82410156 124.544375 -354.125 124.9375 C-355.41199703 125.32329164 -356.69910521 125.7087127 -357.98632812 126.09375 C-361.13783287 127.03802108 -364.2881465 127.98608338 -367.4375 128.9375 C-363.88961012 131.82719943 -359.96386463 133.88513491 -355.92578125 135.9921875 C-355.19812057 136.3756131 -354.4704599 136.7590387 -353.7207489 137.15408325 C-351.398875 138.37683817 -349.07456998 139.59487959 -346.75 140.8125 C-344.44867338 142.02123372 -342.14787841 143.23095974 -339.84786987 144.44219971 C-338.36760442 145.2205505 -336.88594844 145.99626295 -335.40286255 146.76922607 C-331.61353833 148.75139435 -327.93924193 150.83228184 -324.29296875 153.0703125 C-320.27934059 155.28586979 -317.94260869 155.20351676 -313.4375 153.9375 C-312.54691895 153.68726074 -311.65633789 153.43702148 -310.73876953 153.17919922 C-307.64492638 152.28615691 -304.57268201 151.3381933 -301.5 150.375 C-299.90188477 149.8809668 -299.90188477 149.8809668 -298.27148438 149.37695312 C-295.65865762 148.5685 -293.04743378 147.75523465 -290.4375 146.9375 C-293.58864435 144.42898277 -296.87218484 142.53391194 -300.42578125 140.64453125 C-301.00173035 140.33702942 -301.57767944 140.02952759 -302.17108154 139.71270752 C-304.02895508 138.72177918 -305.88933147 137.73566874 -307.75 136.75 C-309.02348117 136.07307048 -310.29683709 135.3959053 -311.57006836 134.71850586 C-313.4575241 133.71443954 -315.3451374 132.71068179 -317.23353577 131.70838928 C-320.67184642 129.8824837 -324.10021799 128.04025336 -327.515625 126.171875 C-328.20873779 125.79442139 -328.90185059 125.41696777 -329.6159668 125.02807617 C-331.36170262 124.07546589 -333.10479607 123.11801756 -334.84765625 122.16015625 C-339.19564638 120.10748519 -342.20670758 121.35641683 -346.63671875 122.6875 Z M-405.39453125 140.6875 C-406.50634766 141.0484375 -407.61816406 141.409375 -408.76367188 141.78125 C-409.91416016 142.1628125 -411.06464844 142.544375 -412.25 142.9375 C-413.41982422 143.3190625 -414.58964844 143.700625 -415.79492188 144.09375 C-418.67798462 145.03515824 -421.5586578 145.9832788 -424.4375 146.9375 C-421.60398537 149.77101463 -418.7938805 149.22644337 -415 149.3125 C-403.75094685 149.82307748 -394.56204659 152.81295341 -386.4375 160.9375 C-383.20210279 164.76411187 -380.29515875 168.82328208 -377.4375 172.9375 C-367.94865195 170.72702972 -358.70677435 167.91354874 -349.4375 164.9375 C-349.4375 164.2775 -349.4375 163.6175 -349.4375 162.9375 C-351.27990371 161.94913634 -353.12236432 160.96087874 -354.96484375 159.97265625 C-355.54089355 159.6636438 -356.11694336 159.35463135 -356.71044922 159.03625488 C-359.88523427 157.33360894 -363.06099719 155.63282443 -366.23852539 153.93530273 C-367.52362852 153.24858803 -368.80870348 152.56182063 -370.09375 151.875 C-370.72949448 151.53521622 -371.36523895 151.19543243 -372.02024841 150.84535217 C-375.66065315 148.89695617 -379.2889825 146.92865642 -382.90625 144.9375 C-383.67718994 144.51718506 -384.44812988 144.09687012 -385.24243164 143.66381836 C-386.623807 142.90995272 -388.00092799 142.14821669 -389.37280273 141.37719727 C-395.32796664 138.14980625 -399.09059673 138.61851636 -405.39453125 140.6875 Z M-426.4375 172.9375 C-427.30375 173.535625 -428.17 174.13375 -429.0625 174.75 C-433.59924182 178.92857799 -434.65628321 182.77773976 -434.9375 188.8125 C-434.77637606 194.71549535 -433.42812039 198.57835266 -429.4375 202.9375 C-425.25682073 206.46785138 -420.87939886 208.44650161 -415.4375 208.9375 C-409.15428197 208.37059311 -403.9406856 205.70888405 -399.6875 201 C-396.30139699 195.41293003 -395.6407932 190.39967739 -396.4375 183.9375 C-398.39913448 177.73449368 -401.67881276 174.2157415 -407.22265625 170.85546875 C-410.03913189 169.68814639 -412.33166914 169.63651323 -415.375 169.625 C-416.39464844 169.60824219 -417.41429687 169.59148437 -418.46484375 169.57421875 C-421.8490668 169.9877966 -423.66291612 171.0024056 -426.4375 172.9375 Z M-409.4375 247.9375 C-409.4375 248.2675 -409.4375 248.5975 -409.4375 248.9375 C-399.95807963 251.8088503 -389.65758035 253.2145329 -380.4375 248.9375 C-365.6624332 239.00254129 -352.54155832 223.7660682 -341.4375 209.9375 C-341.4375 209.6075 -341.4375 209.2775 -341.4375 208.9375 C-372.47436555 199.53632254 -391.66454966 225.80374955 -409.4375 247.9375 Z M-349.4375 247.9375 C-349.4375 248.2675 -349.4375 248.5975 -349.4375 248.9375 C-339.95807963 251.8088503 -329.65758035 253.2145329 -320.4375 248.9375 C-305.6624332 239.00254129 -292.54155832 223.7660682 -281.4375 209.9375 C-281.4375 209.6075 -281.4375 209.2775 -281.4375 208.9375 C-312.47436555 199.53632254 -331.66454966 225.80374955 -349.4375 247.9375 Z M-289.4375 247.9375 C-289.4375 248.2675 -289.4375 248.5975 -289.4375 248.9375 C-279.95807963 251.8088503 -269.65758035 253.2145329 -260.4375 248.9375 C-245.6624332 239.00254129 -232.54155832 223.7660682 -221.4375 209.9375 C-221.4375 209.6075 -221.4375 209.2775 -221.4375 208.9375 C-252.47436555 199.53632254 -271.66454966 225.80374955 -289.4375 247.9375 Z M-229.4375 247.9375 C-229.4375 248.2675 -229.4375 248.5975 -229.4375 248.9375 C-219.95807963 251.8088503 -209.65758035 253.2145329 -200.4375 248.9375 C-185.6624332 239.00254129 -172.54155832 223.7660682 -161.4375 209.9375 C-161.4375 209.6075 -161.4375 209.2775 -161.4375 208.9375 C-192.47436555 199.53632254 -211.66454966 225.80374955 -229.4375 247.9375 Z M-169.4375 247.9375 C-169.4375 248.2675 -169.4375 248.5975 -169.4375 248.9375 C-159.95807963 251.8088503 -149.65758035 253.2145329 -140.4375 248.9375 C-125.6624332 239.00254129 -112.54155832 223.7660682 -101.4375 209.9375 C-101.4375 209.6075 -101.4375 209.2775 -101.4375 208.9375 C-132.47436555 199.53632254 -151.66454966 225.80374955 -169.4375 247.9375 Z M-109.4375 247.9375 C-109.4375 248.2675 -109.4375 248.5975 -109.4375 248.9375 C-99.95807963 251.8088503 -89.65758035 253.2145329 -80.4375 248.9375 C-65.6624332 239.00254129 -52.54155832 223.7660682 -41.4375 209.9375 C-41.4375 209.6075 -41.4375 209.2775 -41.4375 208.9375 C-72.47436555 199.53632254 -91.66454966 225.80374955 -109.4375 247.9375 Z M-49.4375 247.9375 C-49.4375 248.2675 -49.4375 248.5975 -49.4375 248.9375 C-39.95807963 251.8088503 -29.65758035 253.2145329 -20.4375 248.9375 C-5.6624332 239.00254129 7.45844168 223.7660682 18.5625 209.9375 C18.5625 209.6075 18.5625 209.2775 18.5625 208.9375 C-12.47436555 199.53632254 -31.66454966 225.80374955 -49.4375 247.9375 Z M20.62109375 237.74609375 C20.03779297 238.32810547 19.45449219 238.91011719 18.85351562 239.50976562 C18.24185547 240.12529297 17.63019531 240.74082031 17 241.375 C16.38447266 241.98666016 15.76894531 242.59832031 15.13476562 243.22851562 C14.55275391 243.81181641 13.97074219 244.39511719 13.37109375 244.99609375 C12.56369751 245.80518188 12.56369751 245.80518188 11.73999023 246.63061523 C10.45093816 247.76813813 10.45093816 247.76813813 10.5625 248.9375 C15.1825 248.9375 19.8025 248.9375 24.5625 248.9375 C24.5625 244.3175 24.5625 239.6975 24.5625 234.9375 C22.78800406 234.9375 21.82226334 236.54743594 20.62109375 237.74609375 Z M-415.4375 268.9375 C-415.4375 338.2375 -415.4375 407.5375 -415.4375 478.9375 C-270.2375 478.9375 -125.0375 478.9375 24.5625 478.9375 C24.5625 409.6375 24.5625 340.3375 24.5625 268.9375 C-120.6375 268.9375 -265.8375 268.9375 -415.4375 268.9375 Z " fill="#E38D02" transform="translate(805.4375,183.0625)"/>
<path d="M0 0 C1.25017966 -0.00307895 1.25017966 -0.00307895 2.52561548 -0.0062201 C5.33080896 -0.01189451 8.13595341 -0.0104323 10.94115162 -0.00901413 C12.96774232 -0.01159751 14.99433252 -0.01461059 17.02092201 -0.01801753 C22.59989598 -0.02609393 28.17885709 -0.02787746 33.75783622 -0.028615 C39.7709509 -0.03046443 45.78405888 -0.0380112 51.79716969 -0.04475021 C65.63596997 -0.05904712 79.47476846 -0.0648606 93.31357432 -0.06944216 C100.15265182 -0.07177838 106.99172849 -0.07538106 113.83080533 -0.07913754 C137.24319774 -0.09197257 160.65558968 -0.10269194 184.06798553 -0.10614014 C185.53755474 -0.10636177 187.00712394 -0.10658355 188.47669314 -0.10680549 C189.94980356 -0.10702613 191.42291398 -0.10724661 192.89602441 -0.10746694 C195.85131848 -0.10790949 198.80661255 -0.1083566 201.76190662 -0.10880661 C202.49464721 -0.108916 203.22738779 -0.10902539 203.98233263 -0.1091381 C227.7419239 -0.1127688 251.50148465 -0.12868958 275.26106423 -0.15199697 C300.38311131 -0.17659583 325.50514095 -0.19031299 350.62720042 -0.19150805 C353.38524044 -0.19167951 356.14328045 -0.19189494 358.90132046 -0.19214249 C359.91997541 -0.19222614 359.91997541 -0.19222614 360.95920926 -0.19231148 C371.88530228 -0.19346186 382.81136398 -0.20448269 393.73744642 -0.21902954 C404.72065239 -0.23339954 415.70382351 -0.23637627 426.68703713 -0.22858956 C432.636558 -0.22467907 438.58597351 -0.2256323 444.53548145 -0.23964691 C449.98289517 -0.25236152 455.4301241 -0.25120965 460.87753747 -0.2390562 C462.84727202 -0.23709499 464.81701955 -0.24019716 466.78673586 -0.24890056 C482.26162743 -0.3129439 494.06412363 0.92318209 505.91644764 11.75642776 C513.72307567 19.85503598 515.88531515 29.50260683 515.8603754 40.40248013 C515.86345436 41.65265979 515.86345436 41.65265979 515.86659551 42.92809561 C515.87226992 45.73328908 515.87080771 48.53843353 515.86938953 51.34363174 C515.87197291 53.37022245 515.874986 55.39681264 515.87839293 57.42340213 C515.88646934 63.00237611 515.88825286 68.58133722 515.8889904 74.16031635 C515.89083984 80.17343102 515.8983866 86.186539 515.90512562 92.19964981 C515.91942253 106.03845009 515.92523601 119.87724859 515.92981756 133.71605444 C515.93215379 140.55513195 515.93575646 147.39420861 515.93951294 154.23328546 C515.95234797 177.64567787 515.96306734 201.05806981 515.96651554 224.47046566 C515.96673717 225.94003486 515.96695896 227.40960407 515.96718089 228.87917327 C515.96740153 230.35228369 515.96762202 231.82539411 515.96784234 233.29850453 C515.96828489 236.2537986 515.96873201 239.20909268 515.96918201 242.16438675 C515.96929141 242.89712733 515.9694008 243.62986792 515.9695135 244.38481276 C515.9731442 268.14440402 515.98906499 291.90396478 516.01237238 315.66354436 C516.03697124 340.78559144 516.0506884 365.90762108 516.05188346 391.02968055 C516.05205491 393.78772057 516.05227034 396.54576057 516.05251789 399.30380058 C516.05257366 399.98290389 516.05262943 400.66200719 516.05268689 401.36168938 C516.05383726 412.28778241 516.06485809 423.2138441 516.07940495 434.13992655 C516.09377495 445.12313252 516.09675168 456.10630364 516.08896497 467.08951726 C516.08505447 473.03903812 516.08600771 478.98845363 516.10002232 484.93796158 C516.11273693 490.38537529 516.11158505 495.83260422 516.0994316 501.28001759 C516.09747039 503.24975215 516.10057257 505.21949968 516.10927597 507.18921598 C516.1733193 522.66410756 514.93719332 534.46660376 504.10394764 546.31892776 C496.00533943 554.12555579 486.35776857 556.28779527 475.45789528 556.26285553 C474.20771561 556.26593448 474.20771561 556.26593448 472.9322798 556.26907563 C470.12708632 556.27475004 467.32194187 556.27328783 464.51674366 556.27186966 C462.49015296 556.27445304 460.46356276 556.27746612 458.43697327 556.28087306 C452.8579993 556.28894946 447.27903819 556.29073299 441.70005906 556.29147053 C435.68694438 556.29331996 429.6738364 556.30086673 423.66072559 556.30760574 C409.82192531 556.32190265 395.98312682 556.32771613 382.14432096 556.33229769 C375.30524346 556.33463391 368.46616679 556.33823659 361.62708994 556.34199307 C338.21469754 556.3548281 314.80230559 556.36554746 291.38990974 556.36899567 C289.92034054 556.3692173 288.45077134 556.36943908 286.98120214 556.36966102 C285.50809172 556.36988166 284.03498129 556.37010214 282.56187087 556.37032247 C279.6065768 556.37076502 276.65128273 556.37121213 273.69598866 556.37166214 C272.96324807 556.37177153 272.23050749 556.37188092 271.47556265 556.37199363 C247.71597138 556.37562433 223.95641063 556.39154511 200.19683105 556.4148525 C175.07478397 556.43945136 149.95275433 556.45316852 124.83069485 556.45436358 C122.07265484 556.45453504 119.31461483 556.45475047 116.55657482 556.45499802 C115.87747152 556.45505379 115.19836821 556.45510955 114.49868602 556.45516701 C103.572593 556.45631739 92.6465313 556.46733822 81.72044885 556.48188507 C70.73724289 556.49625507 59.75407176 556.4992318 48.77085815 556.49144509 C42.82133728 556.4875346 36.87192177 556.48848783 30.92241383 556.50250244 C25.47500011 556.51521705 20.02777118 556.51406518 14.58035781 556.50191173 C12.61062326 556.49995052 10.64087573 556.50305269 8.67115942 556.51175609 C-6.80373216 556.57579943 -18.60622836 555.33967344 -30.45855236 544.50642776 C-38.26518039 536.40781955 -40.42741987 526.7602487 -40.40248013 515.8603754 C-40.40453276 515.02692229 -40.40658539 514.19346919 -40.40870023 513.33475992 C-40.41437464 510.52956645 -40.41291243 507.724422 -40.41149426 504.91922379 C-40.41407763 502.89263308 -40.41709072 500.86604289 -40.42049766 498.8394534 C-40.42857406 493.26047942 -40.43035758 487.68151831 -40.43109512 482.10253918 C-40.43294456 476.08942451 -40.44049132 470.07631653 -40.44723034 464.06320572 C-40.46152725 450.22440544 -40.46734073 436.38560694 -40.47192228 422.54680109 C-40.47425851 415.70772358 -40.47786118 408.86864692 -40.48161766 402.02957007 C-40.49445269 378.61717766 -40.50517206 355.20478572 -40.50862026 331.79238987 C-40.50884189 330.32282067 -40.50906368 328.85325146 -40.50928561 327.38368226 C-40.50950625 325.91057184 -40.50972674 324.43746142 -40.50994706 322.964351 C-40.51038961 320.00905693 -40.51083673 317.05376285 -40.51128674 314.09846878 C-40.51139613 313.3657282 -40.51150552 312.63298761 -40.51161822 311.87804277 C-40.51524892 288.11845151 -40.53116971 264.35889075 -40.5544771 240.59931117 C-40.57907596 215.47726409 -40.59279312 190.35523445 -40.59398818 165.23317498 C-40.59415963 162.47513496 -40.59437506 159.71709496 -40.59462261 156.95905495 C-40.59467838 156.27995164 -40.59473415 155.60084834 -40.59479161 154.90116615 C-40.59594198 143.97507312 -40.60696281 133.04901143 -40.62150967 122.12292898 C-40.63587967 111.13972301 -40.6388564 100.15655189 -40.63106969 89.17333827 C-40.62715919 83.22381741 -40.62811243 77.2744019 -40.64212704 71.32489395 C-40.65484165 65.87748024 -40.65368978 60.43025131 -40.64153633 54.98283794 C-40.63957511 53.01310338 -40.64267729 51.04335585 -40.65138069 49.07363955 C-40.71542402 33.59874797 -39.47929804 21.79625177 -28.64605236 9.94392776 C-20.54744415 2.13729974 -10.89987329 -0.02493974 0 0 Z M-18.08355236 22.31892776 C-18.62624767 22.84873245 -19.16894299 23.37853714 -19.72808361 23.92439651 C-23.84771387 29.8170322 -24.71305461 35.74111409 -24.64857578 42.71474075 C-24.65293611 43.54550109 -24.65729643 44.37626143 -24.66178888 45.23219633 C-24.67271945 48.01029783 -24.66233338 50.78790036 -24.65200329 53.56599808 C-24.65546071 55.58010614 -24.66022585 57.5942123 -24.66618502 59.60831451 C-24.67871295 65.13881434 -24.6725164 70.66915895 -24.66322637 76.19965935 C-24.6564436 82.16565505 -24.66691328 88.13162391 -24.67516613 94.09761429 C-24.68774243 105.1079826 -24.68664237 116.11830476 -24.67843173 127.12867486 C-24.67088377 137.30037417 -24.66891556 147.47205534 -24.67249966 157.64375687 C-24.67272881 158.31858318 -24.67295797 158.99340949 -24.67319407 159.68868509 C-24.67412809 162.42805494 -24.67508329 165.16742479 -24.67607336 167.90679462 C-24.68524947 193.60191238 -24.67693138 219.29699861 -24.66078267 244.9921115 C-24.64654595 267.81851506 -24.64781983 290.6448684 -24.66216564 313.47127151 C-24.67823104 339.1195223 -24.68459869 364.76774525 -24.67532885 390.41600037 C-24.6743667 393.15036646 -24.67342818 395.88473256 -24.67249966 398.61909866 C-24.67226242 399.29236471 -24.67202519 399.96563076 -24.67178077 400.65929881 C-24.66836898 410.8243732 -24.67235802 420.98942745 -24.67993832 431.15449905 C-24.68851487 442.71314722 -24.68608534 454.27173898 -24.67009608 465.83038044 C-24.66220562 471.7290375 -24.65913508 477.6275926 -24.66904354 483.52624893 C-24.67797473 488.92472025 -24.67308343 494.32299497 -24.65711088 499.72144842 C-24.65375642 501.6755763 -24.65547205 503.62972074 -24.66273825 505.58383799 C-24.67185421 508.23883343 -24.66251059 510.89315453 -24.64857578 513.54811478 C-24.65559928 514.30773246 -24.66262278 515.06735015 -24.66985911 515.84998655 C-24.60587359 521.94508233 -23.28419028 527.25187605 -19.72808361 532.33845901 C-18.91404064 533.13316605 -18.91404064 533.13316605 -18.08355236 533.94392776 C-17.55374767 534.48662308 -17.02394299 535.02931839 -16.47808361 535.58845901 C-10.58544792 539.70808927 -4.66136603 540.57343001 2.31226063 540.50895119 C3.14302097 540.51331151 3.97378131 540.51767183 4.82971621 540.52216429 C7.60781771 540.53309486 10.38542024 540.52270878 13.16351795 540.51237869 C15.17762601 540.51583612 17.19173218 540.52060125 19.20583439 540.52656043 C24.73633422 540.53908835 30.26667882 540.53289181 35.79717922 540.52360177 C41.76317492 540.51681901 47.72914378 540.52728868 53.69513416 540.53554153 C64.70550248 540.54811784 75.71582463 540.54701778 86.72619474 540.53880713 C96.89789404 540.53125917 107.06957521 540.52929096 117.24127674 540.53287506 C117.91610305 540.53310422 118.59092937 540.53333337 119.28620496 540.53356947 C122.02557482 540.53450349 124.76494466 540.53545869 127.5043145 540.53644876 C153.19943225 540.54562487 178.89451849 540.53730679 204.58963138 540.52115807 C227.41603493 540.50692135 250.24238828 540.50819524 273.06879139 540.52254105 C298.71704218 540.53860645 324.36526512 540.5449741 350.01352024 540.53570426 C352.74788633 540.53474211 355.48225243 540.53380359 358.21661854 540.53287506 C358.88988459 540.53263783 359.56315063 540.5324006 360.25681868 540.53215618 C370.42189307 540.52874438 380.58694733 540.53273343 390.75201893 540.54031372 C402.3106671 540.54889028 413.86925886 540.54646074 425.42790031 540.53047149 C431.32655738 540.52258102 437.22511247 540.51951049 443.12376881 540.52941895 C448.52224013 540.53835013 453.92051484 540.53345883 459.3189683 540.51748629 C461.27309617 540.51413183 463.22724061 540.51584746 465.18135786 540.52311365 C467.83635331 540.53222961 470.49067441 540.52288599 473.14563465 540.50895119 C474.28506118 540.51948643 474.28506118 540.51948643 475.44750643 540.53023452 C481.54260221 540.46624899 486.84939593 539.14456569 491.93597889 535.58845901 C492.73068592 534.77441605 492.73068592 534.77441605 493.54144764 533.94392776 C494.08414295 533.41412308 494.62683826 532.88431839 495.18597889 532.33845901 C499.30560915 526.44582333 500.17094989 520.52174144 500.10647106 513.54811478 C500.11083138 512.71735444 500.11519171 511.8865941 500.11968416 511.0306592 C500.13061473 508.2525577 500.12022866 505.47495517 500.10989857 502.69685745 C500.11335599 500.68274939 500.11812113 498.66864323 500.1240803 496.65454102 C500.13660823 491.12404119 500.13041168 485.59369658 500.12112164 480.06319618 C500.11433888 474.09720048 500.12480856 468.13123162 500.13306141 462.16524124 C500.14563771 451.15487293 500.14453765 440.14455077 500.136327 429.13418067 C500.12877905 418.96248136 500.12681083 408.79080019 500.13039494 398.61909866 C500.13062409 397.94427235 500.13085325 397.26944604 500.13108935 396.57417044 C500.13202337 393.83480059 500.13297857 391.09543074 500.13396864 388.35606091 C500.14314475 362.66094315 500.13482666 336.96585691 500.11867795 311.27074403 C500.10444123 288.44434047 500.10571511 265.61798713 500.12006092 242.79158401 C500.13612632 217.14333323 500.14249397 191.49511028 500.13322413 165.84685516 C500.13226198 163.11248907 500.13132346 160.37812297 500.13039494 157.64375687 C500.1301577 156.97049082 500.12992047 156.29722477 500.12967605 155.60355672 C500.12626425 145.43848233 500.1302533 135.27342808 500.1378336 125.10835648 C500.14641015 113.54970831 500.14398062 101.99111655 500.12799136 90.43247509 C500.1201009 84.53381803 500.11703036 78.63526293 500.12693882 72.7366066 C500.13587001 67.33813528 500.1309787 61.93986056 500.11500616 56.54140711 C500.1116517 54.58727923 500.11336733 52.63313479 500.12063353 50.67901754 C500.12974949 48.0240221 500.12040587 45.369701 500.10647106 42.71474075 C500.11349456 41.95512307 500.12051806 41.19550538 500.12775439 40.41286898 C500.06376887 34.3177732 498.74208556 29.01097948 495.18597889 23.92439651 C494.37193592 23.12968948 494.37193592 23.12968948 493.54144764 22.31892776 C493.01164295 21.77623245 492.48183826 21.23353714 491.93597889 20.67439651 C486.0433432 16.55476626 480.11926131 15.68942552 473.14563465 15.75390434 C472.31487431 15.74954402 471.48411397 15.7451837 470.62817907 15.74069124 C467.85007757 15.72976067 465.07247504 15.74014675 462.29437733 15.75047684 C460.28026927 15.74701941 458.2661631 15.74225428 456.25206089 15.7362951 C450.72156106 15.72376718 445.19121646 15.72996372 439.66071606 15.73925376 C433.69472036 15.74603652 427.7287515 15.73556685 421.76276112 15.727314 C410.7523928 15.71473769 399.74207065 15.71583775 388.73170054 15.7240484 C378.56000124 15.73159636 368.38832007 15.73356457 358.21661854 15.72998047 C357.54179222 15.72975131 356.86696591 15.72952216 356.17169032 15.72928606 C353.43232046 15.72835204 350.69295062 15.72739684 347.95358078 15.72640677 C322.25846303 15.71723066 296.56337679 15.72554874 270.8682639 15.74169746 C248.04186035 15.75593418 225.215507 15.75466029 202.38910389 15.74031448 C176.7408531 15.72424908 151.09263016 15.71788143 125.44437504 15.72715127 C122.71000895 15.72811342 119.97564285 15.72905194 117.24127674 15.72998047 C116.56801069 15.7302177 115.89474465 15.73045493 115.2010766 15.73069935 C105.03600221 15.73411115 94.87094795 15.7301221 84.70587635 15.72254181 C73.14722818 15.71396525 61.58863642 15.71639479 50.02999496 15.73238404 C44.1313379 15.74027451 38.23278281 15.74334504 32.33412647 15.73343658 C26.93565515 15.7245054 21.53738044 15.7293967 16.13892698 15.74536924 C14.18479911 15.7487237 12.23065466 15.74700807 10.27653742 15.73974188 C7.62154197 15.73062592 4.96722087 15.73996954 2.31226063 15.75390434 C1.1728341 15.7433691 1.1728341 15.7433691 0.01038885 15.73262101 C-6.7063341 15.8031323 -13.23136935 17.34868677 -18.08355236 22.31892776 Z " fill="#E38D03" transform="translate(362.27105236053467,153.86857223510742)"/>
<path d="M0 0 C5.64222669 5.64222669 7.57744361 12.45666791 7.8125 20.3125 C7.45421688 44.61060945 -8.18564113 68.25721292 -24.84375 84.83203125 C-28.83751573 88.84689081 -30.99181161 91.23236354 -31 97.0625 C-30.87358244 98.54564881 -30.72125953 100.0280095 -30.5 101.5 C-30.09910156 100.67757812 -29.69820312 99.85515625 -29.28515625 99.0078125 C-23.58314746 87.81067052 -15.80266935 76.0565442 -3.5 71.5 C1.6377828 70.87196469 5.94222396 70.72111198 10.625 73.0625 C13.35354183 76.60960438 13.67758915 80.14488202 13.34228516 84.59155273 C13.03222251 86.88576004 12.65557757 89.15826171 12.25 91.4375 C12.11231201 92.26145264 11.97462402 93.08540527 11.83276367 93.93432617 C11.14542307 97.99404123 10.40438248 102.04219426 9.62890625 106.0859375 C9.49194336 106.80015869 9.35498047 107.51437988 9.21386719 108.25024414 C8.83518381 110.19594881 8.44339634 112.13908989 8.05078125 114.08203125 C7.04034671 119.93079891 7.04034671 119.93079891 8.5 125.5 C12.46805832 125.79034573 14.50240817 125.36082801 17.625 122.875 C22.23421253 118.61040149 22.79389356 114.1444325 23.80859375 108.1328125 C26.31043301 94.98755535 33.82183886 84.37027615 44.5 76.5 C51.8753275 71.89940585 58.97858945 70.06782138 67.6171875 70.8203125 C68.23851562 71.04460937 68.85984375 71.26890625 69.5 71.5 C69.80292969 72.16515625 70.10585938 72.8303125 70.41796875 73.515625 C70.77503906 74.17046875 71.13210938 74.8253125 71.5 75.5 C74.05006038 76.13016367 74.05006038 76.13016367 76.9375 76.125 C82.2113764 76.30758427 82.2113764 76.30758427 85.5 78.5 C87.35252161 87.34582023 84.13447325 97.57084273 82.56079102 106.35205078 C82.19773141 108.39482796 81.84653635 110.43940166 81.49609375 112.484375 C81.28138428 113.68803711 81.0666748 114.89169922 80.84545898 116.13183594 C80.49869416 119.51273173 80.77449872 122.1947636 81.5 125.5 C88.46750572 125.16012167 91.97874204 121.24681782 96.46484375 116.359375 C98.16641658 114.42466233 99.83726826 112.46803559 101.5 110.5 C101.83 110.17 102.16 109.84 102.5 109.5 C102.65740605 107.79436222 102.75093392 106.08272756 102.81640625 104.37109375 C102.85830078 103.33662109 102.90019531 102.30214844 102.94335938 101.23632812 C102.98267578 100.14771484 103.02199219 99.05910156 103.0625 97.9375 C103.12727539 96.2987793 103.12727539 96.2987793 103.19335938 94.62695312 C103.29982068 91.91810436 103.40183516 89.20916008 103.5 86.5 C102.46939453 86.55220703 102.46939453 86.55220703 101.41796875 86.60546875 C100.51691406 86.63253906 99.61585938 86.65960937 98.6875 86.6875 C97.34751953 86.73970703 97.34751953 86.73970703 95.98046875 86.79296875 C93.5 86.5 93.5 86.5 91.70068359 85.13671875 C90.04312435 82.87720732 90.10020284 81.27728164 90.125 78.5 C90.11726562 77.63375 90.10953125 76.7675 90.1015625 75.875 C90.5 73.5 90.5 73.5 91.63671875 71.73046875 C94.28973276 69.97847836 96.53669489 69.98189812 99.6875 69.8125 C100.77417969 69.74675781 101.86085938 69.68101562 102.98046875 69.61328125 C104.22763672 69.55720703 104.22763672 69.55720703 105.5 69.5 C105.70753906 68.34886719 105.91507813 67.19773437 106.12890625 66.01171875 C109.88180553 46.20976725 115.8022341 22.57380918 133.5 10.5 C138.00820682 7.7713485 143.37461083 7.70326482 148.5 8.5 C153.19632646 10.77967514 155.6224714 14.75676986 157.5 19.5 C160.65286648 30.10509633 157.87659525 42.95878215 153.3125 52.75 C149.95340277 58.93565465 145.47078664 64.52921336 140.5 69.5 C141.77617188 69.53738281 143.05234375 69.57476563 144.3671875 69.61328125 C146.03648838 69.67892791 147.70575789 69.7453757 149.375 69.8125 C150.63763672 69.84633789 150.63763672 69.84633789 151.92578125 69.88085938 C153.13427734 69.9340332 153.13427734 69.9340332 154.3671875 69.98828125 C155.48262939 70.02755737 155.48262939 70.02755737 156.62060547 70.06762695 C158.5 70.5 158.5 70.5 160.5 73.5 C160.5390625 75.62109375 160.5390625 75.62109375 160.125 77.9375 C160.01414062 78.69933594 159.90328125 79.46117187 159.7890625 80.24609375 C157.64205568 84.00010265 154.49805854 85.35143 150.5 86.5 C145.81834416 86.95897883 141.1981204 86.87898747 136.5 86.75 C135.24832031 86.73195313 133.99664063 86.71390625 132.70703125 86.6953125 C129.63721758 86.64844512 126.56901826 86.5828431 123.5 86.5 C123.05855355 104.93163253 123.05855355 104.93163253 127.5 122.5 C130.07774982 124.89249059 131.19954835 125.45955459 134.75 125.9375 C140.51885907 125.26446644 144.72715113 122.68189924 149.5 119.5 C151.5625 119.6875 151.5625 119.6875 153.5 120.5 C156.00132989 124.25199483 156.09221852 127.1623995 155.5 131.5 C153.60657661 136.99092783 151.15611049 139.07312109 146.125 141.9375 C138.48402644 145.43532633 129.5919551 146.34553832 121.5625 143.375 C115.57399318 139.70856726 111.10274968 136.23652857 108.5 129.5 C108.5 128.84 108.5 128.18 108.5 127.5 C108.00371094 127.93570313 107.50742187 128.37140625 106.99609375 128.8203125 C105.57147306 130.06922096 104.14421056 131.31511999 102.71484375 132.55859375 C101.36125763 133.74507048 100.01743533 134.94295893 98.69140625 136.16015625 C92.34863072 141.8876972 86.58994234 145.28552568 77.82421875 144.8828125 C71.58734233 143.85556227 68.14091672 139.21177457 64.5 134.5 C64.07589844 134.88671875 63.65179687 135.2734375 63.21484375 135.671875 C56.05159758 142.03220786 51.22646122 145.22547237 41.4453125 144.89453125 C35.81960502 144.14095505 31.22512811 141.81390216 27.5 137.5 C27.5 136.84 27.5 136.18 27.5 135.5 C26.41332031 136.22316406 26.41332031 136.22316406 25.3046875 136.9609375 C24.33789062 137.59257813 23.37109375 138.22421875 22.375 138.875 C21.42367187 139.50148438 20.47234375 140.12796875 19.4921875 140.7734375 C12.33896902 144.90101265 5.59883872 145.16975129 -2.5 144.5 C-6.74943702 143.03467689 -9.39208874 141.5050314 -11.5 137.5 C-14.5902374 128.81790445 -12.81268578 120.37946665 -11.5 111.5 C-11.3033492 110.09654104 -11.10799197 108.69290008 -10.9140625 107.2890625 C-10.45704598 104.02371259 -9.98581575 100.76116746 -9.5 97.5 C-10.49 97.5 -11.48 97.5 -12.5 97.5 C-20.85433048 107.41191751 -25.36100641 120.68419942 -28.58837891 133.08276367 C-29.90799786 137.77295408 -31.75774687 140.40355943 -35.5 143.5 C-38.26047543 144.42015848 -40.13362269 144.69267245 -43 144.75 C-44.16015625 144.78867187 -44.16015625 144.78867187 -45.34375 144.828125 C-48.10226187 144.40835145 -48.83982466 143.72000191 -50.5 141.5 C-51.6875 138.8125 -51.6875 138.8125 -52.5 136.5 C-53.28503906 136.90992188 -54.07007813 137.31984375 -54.87890625 137.7421875 C-55.92949219 138.28101563 -56.98007812 138.81984375 -58.0625 139.375 C-59.09503906 139.90867187 -60.12757813 140.44234375 -61.19140625 140.9921875 C-67.23043973 143.74433263 -72.76296692 144.86665782 -79.375 144.8125 C-80.4266333 144.80621582 -80.4266333 144.80621582 -81.49951172 144.79980469 C-91.12598205 144.5903883 -98.26139136 141.73860864 -105.125 134.875 C-112.4772173 125.19101152 -112.68995636 114.19783275 -111.5 102.5 C-109.15871363 90.33320286 -102.274873 81.81853659 -92.5 74.5 C-86.02177925 70.4392285 -77.88108446 70.62660021 -70.5 71.5 C-64.76221257 73.90550946 -61.79176418 76.59353059 -59.25 82.3125 C-57.62474535 89.21983226 -58.05246977 95.26686535 -61.5 101.5 C-64.20393201 104.42316974 -65.62080525 105.37440075 -69.5625 105.9375 C-72.94019751 105.43443867 -74.15217157 104.96296714 -76.5 102.5 C-76.890625 99.14453125 -76.890625 99.14453125 -76.75 95.3125 C-76.71390625 94.04019531 -76.6778125 92.76789063 -76.640625 91.45703125 C-76.59421875 90.48121094 -76.5478125 89.50539063 -76.5 88.5 C-80.64312787 88.2542351 -80.64312787 88.2542351 -84.125 90.5625 C-89.70189424 97.46023761 -91.38356302 105.76254351 -90.5 114.5 C-89.54229781 118.96386615 -88.22846152 121.78930583 -84.9375 125 C-79.58762512 127.33449086 -74.74617347 127.45507253 -69.13671875 125.8046875 C-62.84361911 123.21788661 -57.30296822 119.30296822 -52.5 114.5 C-52.0978526 111.52799227 -52.0978526 111.52799227 -52.0078125 108 C-51.94476288 106.6368579 -51.881182 105.2737403 -51.81713867 103.91064453 C-51.78639252 103.19152893 -51.75564636 102.47241333 -51.72396851 101.73150635 C-50.36408501 71.06934132 -47.68470696 29.00588778 -25.3515625 5.2109375 C-17.87884713 -1.53950798 -9.75445368 -4.18048015 0 0 Z M-13.5 14.5 C-24.72999358 28.98078119 -27.55551569 51.76714852 -29.5 69.5 C-17.70282661 59.13278702 -9.73467722 41.41511567 -8.25390625 25.92578125 C-8.13443861 21.67413891 -8.51175025 18.35223388 -10.5 14.5 C-11.49 14.5 -12.48 14.5 -13.5 14.5 Z M138.5 24.5 C131.02159749 32.43838362 129.23887469 44.93640045 127.125 55.3125 C126.85526367 56.62939819 126.85526367 56.62939819 126.58007812 57.97290039 C125.48253728 62.34574443 125.48253728 62.34574443 126.5 66.5 C136.89478009 56.05245453 142.6727265 44.4933054 142.765625 29.69921875 C142.63273852 27.21060385 142.63273852 27.21060385 140.5 24.5 C139.84 24.5 139.18 24.5 138.5 24.5 Z M53.9375 91.75 C45.64816535 101.10206987 43.23791938 108.80130335 42.90625 121.36328125 C43.23564277 124.67005178 43.23564277 124.67005178 45.84375 126.93359375 C48.42000589 128.79754223 48.42000589 128.79754223 51.5 128.25 C56.6165402 125.26535155 58.7814349 120.89715939 60.46337891 115.28613281 C61.32783581 111.6196258 62.0902353 107.94708051 62.8125 104.25 C63.07611328 102.98414063 63.33972656 101.71828125 63.61132812 100.4140625 C65.03858453 93.51128703 65.03858453 93.51128703 65.5 86.5 C60.67149952 86.5 57.51095697 88.61233047 53.9375 91.75 Z " fill="#FFFFFF" transform="translate(776.5,785.5)"/>
<path d="M0 0 C5.05348101 2.16577758 6.97983952 5.10911088 9.23828125 9.90234375 C13.74338951 22.3087188 10.4055505 36.41097886 5.26953125 48.125 C-1.28062591 62.11630987 -10.38801411 75.43107404 -21.34375 86.33203125 C-25.33751573 90.34689081 -27.49181161 92.73236354 -27.5 98.5625 C-27.37358244 100.04564881 -27.22125953 101.5280095 -27 103 C-26.59910156 102.17757812 -26.19820313 101.35515625 -25.78515625 100.5078125 C-20.08314746 89.31067052 -12.30266935 77.5565442 0 73 C5.1377828 72.37196469 9.44222396 72.22111198 14.125 74.5625 C16.85354183 78.10960438 17.17758915 81.64488202 16.84228516 86.09155273 C16.53222251 88.38576004 16.15557757 90.65826171 15.75 92.9375 C15.61231201 93.76145264 15.47462402 94.58540527 15.33276367 95.43432617 C14.64542307 99.49404123 13.90438248 103.54219426 13.12890625 107.5859375 C12.99194336 108.30015869 12.85498047 109.01437988 12.71386719 109.75024414 C12.33518381 111.69594881 11.94339634 113.63908989 11.55078125 115.58203125 C10.54034671 121.43079891 10.54034671 121.43079891 12 127 C15.18671013 127.32877339 16.75237002 127.14065345 19.57250977 125.53881836 C27.31403981 119.06893684 28.83995296 113.38028384 29.9375 103.5625 C30.27431304 101.04220929 30.61666042 98.52265131 30.96484375 96.00390625 C31.12525146 94.81031494 31.28565918 93.61672363 31.45092773 92.38696289 C32.49801795 85.92796663 34.04469392 79.33106472 38 74 C40.72542267 72.63728867 42.96087274 72.83076399 46 72.8125 C47.0725 72.79832031 48.145 72.78414062 49.25 72.76953125 C52 73 52 73 54 75 C55.25162702 84.40015048 52.67914299 93.83373992 50.77734375 102.97265625 C48.31138334 115.0171974 48.31138334 115.0171974 50 127 C54.97420688 127.10583419 57.92585447 125.81945707 61.8125 122.6875 C67.46868398 116.68735888 67.1746534 109.99101993 67.62109375 102.17578125 C67.90754124 97.34568394 68.69400264 92.81175328 69.875 88.125 C70.33519531 86.27261719 70.33519531 86.27261719 70.8046875 84.3828125 C72.3344795 80.05340115 74.09678134 76.3695326 77.89453125 73.63671875 C80.56736027 72.82842352 82.89799574 72.77153265 85.6875 72.8125 C86.66074219 72.81894531 87.63398437 72.82539062 88.63671875 72.83203125 C91 73 91 73 92 74 C92.34301595 80.28862575 91.39059666 85.88325387 90 92 C89.80921875 92.87011719 89.6184375 93.74023438 89.421875 94.63671875 C88.95533903 96.7594574 88.47871537 98.87997481 88 101 C88.40089844 100.17757812 88.80179688 99.35515625 89.21484375 98.5078125 C94.54362777 88.04357902 101.185709 76.84830326 113 73 C118.33522241 72.11814506 122.40024176 72.12170136 127.1875 74.75 C131.0369974 81.65254706 129.16354532 90.43695543 128 98 C128.43570313 97.28714844 128.87140625 96.57429687 129.3203125 95.83984375 C135.40735334 86.05051183 141.53250093 76.82249969 153 73 C158.15490216 72.44141927 162.50849877 72.23962682 167.1875 74.625 C171.85836483 83.32247245 168.69481601 94.94715685 167.20898438 104.30859375 C165.84708287 113.17678959 165.27298216 122.06930953 164.82275391 131.02612305 C164.75749512 132.12093994 164.69223633 133.21575684 164.625 134.34375 C164.55152344 135.80071289 164.55152344 135.80071289 164.4765625 137.28710938 C163.92265609 140.44028973 162.85905306 142.41060467 161 145 C157.0696314 146.9651843 152.2852815 146.46909886 148 146 C144.83379905 143.81381363 144.2103613 142.63108389 143 139 C142.54641753 130.24018862 143.89550895 121.6075694 145 112.9375 C145.19321073 111.38873447 145.38592326 109.8399067 145.578125 108.29101562 C146.04633996 104.5266013 146.52129797 100.7630945 147 97 C142.69574699 100.26986317 140.16762138 103.48899758 137.6875 108.25 C137.30505127 108.97147217 136.92260254 109.69294434 136.52856445 110.4362793 C132.71422209 117.9730048 130.16070606 125.89953792 127.73901367 133.97558594 C127.43713135 134.95946289 127.13524902 135.94333984 126.82421875 136.95703125 C126.56729248 137.83335205 126.31036621 138.70967285 126.0456543 139.61254883 C124.80953523 142.43487159 123.33623379 144.012904 121 146 C117.91499107 146.80022593 115.11384758 146.6338904 112 146 C108.60996959 143.61976588 107.31019516 141.72378871 105.6875 137.9375 C104.1110454 128.90871459 105.07280212 120.06290802 106.28808594 111.05126953 C106.87071048 106.65463132 107.09278275 102.43617503 107 98 C98.01514445 106.29252936 94.48954518 117.85658254 91.12109375 129.27734375 C87.01084953 142.925646 87.01084953 142.925646 83 146 C79.9352476 146.68870841 77.07927934 146.58987952 74 146 C70.90367351 143.56246638 69.17699513 141.26549269 67 138 C66.360625 138.5775 65.72125 139.155 65.0625 139.75 C57.77358269 145.10512292 51.06329678 147.14172168 42 146 C36.71185774 144.23728591 34.2652082 141.32159909 31 137 C29.91332031 137.72316406 29.91332031 137.72316406 28.8046875 138.4609375 C27.83789062 139.09257813 26.87109375 139.72421875 25.875 140.375 C24.92367187 141.00148438 23.97234375 141.62796875 22.9921875 142.2734375 C15.83896902 146.40101265 9.09883872 146.66975129 1 146 C-3.24943702 144.53467689 -5.89208874 143.0050314 -8 139 C-11.22817015 130.08410149 -9.32315132 121.15812591 -8 112 C-7.90106445 111.31067383 -7.80212891 110.62134766 -7.70019531 109.91113281 C-7.16990919 106.26790426 -6.60316798 102.63184124 -6 99 C-6.99 99 -7.98 99 -9 99 C-17.35433048 108.91191751 -21.86100641 122.18419942 -25.08837891 134.58276367 C-26.40799786 139.27295408 -28.25774687 141.90355943 -32 145 C-34.76047543 145.92015848 -36.63362269 146.19267245 -39.5 146.25 C-40.66015625 146.28867187 -40.66015625 146.28867187 -41.84375 146.328125 C-44.52637655 145.91989922 -45.33389094 145.09279553 -47 143 C-48.1296486 140.74070279 -48.13771593 139.48680139 -48.16113281 136.97875977 C-48.17059433 136.14412704 -48.18005585 135.30949432 -48.18980408 134.4495697 C-48.19419998 133.53937576 -48.19859589 132.62918182 -48.203125 131.69140625 C-48.21013931 130.74604507 -48.21715363 129.8006839 -48.22438049 128.82667542 C-48.24202537 125.73856944 -48.24824581 122.65065474 -48.25 119.5625 C-48.25067474 118.51390808 -48.25134949 117.46531616 -48.25204468 116.38494873 C-48.23531753 100.07331782 -47.73927722 84.1177588 -45 68 C-44.82307617 66.95779297 -44.64615234 65.91558594 -44.46386719 64.84179688 C-42.16406538 51.8215027 -39.13869321 39.20557209 -34 27 C-33.73461426 26.36884277 -33.46922852 25.73768555 -33.19580078 25.08740234 C-26.61370303 9.87343223 -17.90143359 -2.13931967 0 0 Z M-10 16 C-21.22999358 30.48078119 -24.05551569 53.26714852 -26 71 C-14.20282661 60.63278702 -6.23467722 42.91511567 -4.75390625 27.42578125 C-4.63443861 23.17413891 -5.01175025 19.85223388 -7 16 C-7.99 16 -8.98 16 -10 16 Z M126 100 C127 102 127 102 127 102 Z " fill="#FFFFFF" transform="translate(447,784)"/>
<path d="M0 0 C7.69110568 6.86382709 12.5695367 15.33840402 13.23828125 25.6875 C13.63080549 40.82344599 10.2934214 52.1316447 -0.25390625 63.41015625 C-12.34229892 75.03286445 -27.63301085 79.47558923 -44 81 C-44.19577637 82.2375 -44.19577637 82.2375 -44.39550781 83.5 C-51.74283155 129.61700222 -51.74283155 129.61700222 -63 138 C-70.72663661 140.57554554 -79.10998239 139.91395707 -86.4375 136.5 C-96.14663632 130.97405539 -101.63020636 122.55371721 -104.9375 112.01171875 C-112.41425597 83.72226227 -107.64510265 50.29254079 -93 25 C-90.31420425 20.74390357 -87.26660805 16.82591799 -84 13 C-83.42636719 12.32582031 -82.85273438 11.65164063 -82.26171875 10.95703125 C-62.53099401 -10.37475469 -24.26767647 -17.1103894 0 0 Z M-70.21875 23.25 C-84.7737146 40.26811246 -89.35219767 62.57597292 -89.375 84.375 C-89.39949219 85.59960938 -89.42398437 86.82421875 -89.44921875 88.0859375 C-89.48090886 98.05775746 -88.42825124 108.43742602 -81.75 116.3125 C-80.38875 117.6428125 -80.38875 117.6428125 -79 119 C-77.06890419 119.04289755 -77.06890419 119.04289755 -75 118 C-71.20350325 111.58813883 -70.53599099 103.9948409 -69.3125 96.75 C-69.08755859 95.47125 -68.86261719 94.1925 -68.63085938 92.875 C-67.44146841 86.47302276 -67.44146841 86.47302276 -67 80 C-67.69867188 79.86464844 -68.39734375 79.72929688 -69.1171875 79.58984375 C-71.9106256 78.92907298 -74.40015237 78.22270062 -77 77 C-78.97091422 73.19895115 -79.32822452 71.25819398 -78.25 67.125 C-77 65 -77 65 -75 64 C-73.12620395 63.92966231 -71.24998898 63.9156978 -69.375 63.9375 C-67.87066406 63.95103516 -67.87066406 63.95103516 -66.3359375 63.96484375 C-65.56507813 63.97644531 -64.79421875 63.98804688 -64 64 C-63.83395264 63.03175293 -63.66790527 62.06350586 -63.49682617 61.06591797 C-62.87454226 57.45239845 -62.23976733 53.84116415 -61.60131836 50.23046875 C-61.32743035 48.67148851 -61.05687175 47.11191934 -60.78979492 45.55175781 C-60.40390248 43.30107789 -60.00583423 41.05283233 -59.60546875 38.8046875 C-59.48970993 38.1138205 -59.37395111 37.42295349 -59.25468445 36.71115112 C-58.37269842 31.85439397 -57.30980485 26.66498433 -53.125 23.6484375 C-49.09345831 22.41822441 -45.15805781 22.4681554 -41 23 C-38.375 24.4375 -38.375 24.4375 -37 27 C-36.53514965 35.41801727 -38.1318816 43.31004963 -39.66601562 51.55664062 C-39.94155273 53.10061523 -39.94155273 53.10061523 -40.22265625 54.67578125 C-40.48187866 56.0666394 -40.48187866 56.0666394 -40.74633789 57.4855957 C-40.99792625 59.97944414 -40.77726349 61.6377693 -40 64 C-28.86156452 60.89313669 -20.83380047 57.66396025 -14 48 C-10.13732481 40.81868838 -9.62329478 31.64648665 -11.5390625 23.7890625 C-14.10365597 17.3353053 -17.81322886 13.75064047 -23.90234375 10.796875 C-40.68690715 4.42061628 -58.20320051 11.06521742 -70.21875 23.25 Z " fill="#FFFFFF" transform="translate(381,807)"/>
<path d="M0 0 C3.68933766 4.04155598 6.36505864 8.1268478 8.75 13.0625 C9.05292969 13.66126953 9.35585938 14.26003906 9.66796875 14.87695312 C11.30971977 18.20788354 12.64346737 21.28557819 13 25 C10.80597015 29.59701493 10.80597015 29.59701493 8 31 C5.94140625 31.203125 5.94140625 31.203125 3.5625 31.25 C2.78003906 31.27578125 1.99757813 31.3015625 1.19140625 31.328125 C-1.66713552 30.90010805 -2.2694348 30.31521561 -4 28 C-5.29535052 25.61733169 -6.51493388 23.25310214 -7.6875 20.8125 C-8.16799805 19.83120117 -8.16799805 19.83120117 -8.65820312 18.83007812 C-9.44428292 17.22272093 -10.22288683 15.61171142 -11 14 C-14.14193194 17.04509157 -16.92512407 20.09061841 -19.5 23.625 C-24.15310651 29.62610947 -24.15310651 29.62610947 -28 31 C-32.76570517 31.50698991 -35.93423591 31.71050939 -40 29 C-40.77568967 25.81967237 -40.50705023 23.84508372 -38.81640625 21.02734375 C-36.97147916 18.58956239 -35.01836616 16.29676149 -33 14 C-32.56623047 13.49533203 -32.13246094 12.99066406 -31.68554688 12.47070312 C-30.28291492 10.8431766 -28.86376836 9.23183642 -27.4375 7.625 C-26.99108154 7.11308105 -26.54466309 6.60116211 -26.0847168 6.07373047 C-19.61446589 -1.04201146 -8.98125032 -5.19967124 0 0 Z " fill="#FFFFFF" transform="translate(856,817)"/>
<path d="M0 0 C3.38543976 3.49123475 3.27524183 6.12847689 3.22265625 10.80859375 C2.79173546 15.17072178 0.29164259 18.31946451 -3 21.0625 C-6.16009533 22.11586511 -8.5553136 22.26282888 -11.875 22.3125 C-13.41800781 22.35117187 -13.41800781 22.35117187 -14.9921875 22.390625 C-18.4392797 22.01457858 -20.23592829 21.12351514 -23 19.0625 C-25.83880927 14.80428609 -25.51165313 11.05911255 -25 6.0625 C-23.28499686 1.82012381 -21.10034104 0.01504335 -17 -1.9375 C-11.29399107 -3.83950298 -5.01060536 -3.23601596 0 0 Z " fill="#FFFFFF" transform="translate(508,824.9375)"/>
<path d="M0 0 C2.43119623 1.87015094 3.64069173 3.28138345 5 6 C5.39241061 9.53169553 5.36460015 11.41009565 3.4765625 14.46484375 C0.32686984 17.68905595 -2.81019605 19.07198946 -6.9375 20.75 C-7.64068359 21.05292969 -8.34386719 21.35585938 -9.06835938 21.66796875 C-12.64278028 23.17545648 -16.10599104 24.6288085 -20 25 C-22.8125 23.5625 -22.8125 23.5625 -25 22 C-24.87081897 16.08806832 -23.22713141 13.55058456 -19.03320312 9.45703125 C-18.38287109 8.85246094 -17.73253906 8.24789062 -17.0625 7.625 C-16.41603516 6.99722656 -15.76957031 6.36945312 -15.10351562 5.72265625 C-10.25144365 1.05700864 -7.07225897 -1.05033549 0 0 Z " fill="#FFFFFF" transform="translate(886,794)"/>
</svg>
